:SAMPLES-PER-SECOND 30
:FULLY-SPECIFIED
:DEGREES
305
root  43.1468 30.2991 -46.3606 8.56123 -7.52637 2.41734
RightUpLeg  -24.2443 -1.00275 -8.25535
RightLeg  77.0692 -1.08557 -3.92035
RightFoot  0.59355 0.00265658 -0.135168
RightToes  -36.1189 -0.188245 -0.292165
Spine  8.03244 -2.9521 -2.23472
Spine1  15.4065 -5.94623 -3.57746
HEad  -0.457618 -44.2367 31.8012
LeftShoulder1  0 -2.42657e-020 -4.95415e-022
LeftArm  -8.51798 -5.39203 -74.547
LeftForeArm  47.4241 -32.1332 -6.33197
LeftHand  0.325313 -6.33665 -6.24859
RightShoulder  0 2.42657e-020 1.07489e-018
RightArm  -35.2204 -8.35914 81.1525
RightForeArm  49.4759 21.5769 3.96891
RightHand  -1.30948 21.1398 -6.64107
LeftUpLeg  -29.4431 -4.44354 -9.22099
LeftLeg  51.1274 -2.9332 -3.19795
LeftFoot  -22.6992 0.338987 1.68873
LeftToes  2.2599 3.33339e-006 -4.73431e-007
306
root  43.2652 30.4599 -44.3299 8.00317 -7.66791 1.37907
RightUpLeg  -29.1245 -0.926672 -5.42372
RightLeg  77.1707 -2.25518 -7.84397
RightFoot  -2.98906 -0.00286897 0.267649
RightToes  -31.8182 -0.15664 -0.264402
Spine  7.80592 -3.88904 -1.97467
Spine1  15.0989 -8.1433 -2.88068
HEad  0.685123 -44.338 31.1656
LeftShoulder1  0 -2.42657e-020 -4.95415e-022
LeftArm  -9.23142 -5.10361 -74.9223
LeftForeArm  47.8863 -31.8208 -6.254
LeftHand  0.288452 -6.26059 -5.64695
RightShoulder  0 2.42657e-020 1.07489e-018
RightArm  -34.9239 -13.1824 81.0149
RightForeArm  49.21 22.4196 4.14253
RightHand  -1.12298 21.2022 -5.62631
LeftUpLeg  -23.6141 -5.24234 -9.29535
LeftLeg  48.2873 -2.22406 -2.19905
LeftFoot  -24.8709 0.299966 1.36024
LeftToes  4.30268 3.33339e-006 -4.73431e-007
307
root  43.3284 30.9261 -42.2727 8.1189 -8.08504 -0.0701752
RightUpLeg  -33.091 -0.26775 -1.62824
RightLeg  72.6274 -4.49671 -11.6989
RightFoot  -6.35874 0.0491964 1.26333
RightToes  -25.9087 -0.116786 -0.222549
Spine  7.35643 -4.70699 -1.46664
Spine1  14.315 -9.87298 -2.15743
HEad  3.14509 -43.3523 29.444
LeftShoulder1  0 -2.42657e-020 -4.95415e-022
LeftArm  -10.0121 -3.71022 -75.2958
LeftForeArm  47.9655 -32.1298 -6.33019
LeftHand  0.297213 -6.13331 -5.91997
RightShoulder  0 2.42657e-020 1.07489e-018
RightArm  -33.6969 -18.7362 80.6305
RightForeArm  48.8838 26.3758 4.9876
RightHand  -0.953731 21.7059 -4.60295
LeftUpLeg  -16.8182 -5.42879 -8.83531
LeftLeg  42.1003 -1.88002 -1.49619
LeftFoot  -24.9767 0.238594 1.07723
LeftToes  6.08329 3.33339e-006 -4.73431e-007
308
root  43.3409 31.6037 -40.1521 8.63115 -8.49078 -1.82045
RightUpLeg  -34.9456 0.994997 2.64046
RightLeg  63.2679 -7.69878 -12.9474
RightFoot  -7.42171 0.0980034 1.8887
RightToes  -23.6723 -0.102862 -0.205673
Spine  6.73092 -5.60187 -0.769764
Spine1  13.1784 -11.5933 -1.27702
HEad  7.56688 -41.0919 26.0684
LeftShoulder1  0 -2.42657e-020 -4.95415e-022
LeftArm  -11.591 -0.226119 -75.8531
LeftForeArm  47.9801 -34.6599 -6.97637
LeftHand  0.292944 -6.24171 -5.74525
RightShoulder  0 2.42657e-020 1.07489e-018
RightArm  -32.743 -23.4324 79.9256
RightForeArm  47.085 29.4413 5.68709
RightHand  -0.566585 22.1201 -2.52872
LeftUpLeg  -9.14682 -5.59197 -7.91365
LeftLeg  33.2467 -1.48521 -0.846559
LeftFoot  -22.3834 0.139797 0.706545
LeftToes  6.50239 3.33339e-006 -4.73431e-007
309
root  43.3462 32.3261 -37.9655 9.37762 -8.83636 -3.27486
RightUpLeg  -34.5084 2.73399 6.42382
RightLeg  49.2407 -9.52191 -9.61023
RightFoot  -7.58335 0.0912989 1.75524
RightToes  -23.9557 -0.10459 -0.207841
Spine  6.13573 -6.64481 -0.0763511
Spine1  12.0466 -13.6353 -0.24664
HEad  12.6013 -37.2147 21.9862
LeftShoulder1  0 -2.42657e-020 -4.95415e-022
LeftArm  -13.7964 4.29657 -76.9299
LeftForeArm  46.9092 -37.9857 -7.89312
LeftHand  0.238064 -6.07887 -4.8567
RightShoulder  0 2.42657e-020 1.07489e-018
RightArm  -31.5296 -27.3377 78.7538
RightForeArm  43.9571 33.0184 6.56241
RightHand  -0.046781 21.8251 0.127402
LeftUpLeg  -2.4423 -5.38698 -7.21062
LeftLeg  25.4362 -1.21974 -0.489764
LeftFoot  -16.3547 0.0587689 0.408961
LeftToes  5.07699 3.33339e-006 -4.73431e-007
310
root  43.44 32.9235 -35.7346 10.2826 -9.22296 -3.67426
RightUpLeg  -32.851 4.14176 8.89996
RightLeg  32.9774 -7.63124 -4.2706
RightFoot  -5.85628 0.0243411 0.853523
RightToes  -32.8603 -0.164105 -0.271346
Spine  5.53233 -7.59074 0.345304
Spine1  10.8923 -15.5078 0.40214
HEad  16.2476 -32.2029 19.0497
LeftShoulder1  0 -2.42657e-020 -4.95415e-022
LeftArm  -15.9824 8.55953 -78.4187
LeftForeArm  46.6938 -40.8425 -8.75074
LeftHand  0.206125 -5.75743 -4.47269
RightShoulder  0 2.42657e-020 1.07489e-018
RightArm  -30.5318 -30.6123 77.6785
RightForeArm  41.8369 36.247 7.41629
RightHand  0.196693 21.4968 1.40656
LeftUpLeg  1.95033 -3.34853 -7.14983
LeftLeg  20.8698 -2.66044 -0.825054
LeftFoot  -8.40802 0.0313695 0.426751
LeftToes  2.28046 3.33339e-006 -4.73431e-007
311
root  43.6328 33.2632 -33.4313 10.7213 -10.063 -3.25046
RightUpLeg  -30.8099 3.72575 11.0405
RightLeg  19.9529 -2.09235 -0.611624
RightFoot  -3.30682 -0.00847508 0.0839613
RightToes  -44.7202 -0.257245 -0.340204
Spine  5.06772 -8.15985 0.479572
Spine1  10.0207 -16.6014 0.560527
HEad  19.2608 -25.9255 16.3053
LeftShoulder1  0 -2.42657e-020 -4.95415e-022
LeftArm  -18.2034 11.3989 -80.2885
LeftForeArm  47.4442 -42.0655 -9.14
LeftHand  0.229295 -5.89257 -4.8285
RightShoulder  0 2.42657e-020 1.07489e-018
RightArm  -30.1325 -33.3347 77.01
RightForeArm  40.6571 38.7517 8.12959
RightHand  0.161144 21.3694 1.22443
LeftUpLeg  4.61936 0.0514143 -7.64964
LeftLeg  19.9443 -5.2397 -1.52834
LeftFoot  -0.255415 5.34444e-005 0.0239681
LeftToes  -2.85552 3.33339e-006 -4.73431e-007
